<svg xmlns="http://www.w3.org/2000/svg" viewBox="0 0 64 64">
  <rect x="8" y="20" width="48" height="32" rx="4" fill="#2d2d2d"/>
  <rect x="12" y="8" width="40" height="16" rx="2" fill="#f5f0e6" stroke="#2d2d2d" stroke-width="2"/>
  <rect x="16" y="12" width="32" height="8" fill="#fff"/>
  <rect x="14" y="28" width="36" height="4" rx="1" fill="#4a4a4a"/>
  <g fill="#f5f0e6">
    <rect x="12" y="36" width="6" height="5" rx="1"/>
    <rect x="20" y="36" width="6" height="5" rx="1"/>
    <rect x="28" y="36" width="6" height="5" rx="1"/>
    <rect x="36" y="36" width="6" height="5" rx="1"/>
    <rect x="44" y="36" width="6" height="5" rx="1"/>
    <rect x="16" y="44" width="6" height="5" rx="1"/>
    <rect x="24" y="44" width="6" height="5" rx="1"/>
    <rect x="32" y="44" width="6" height="5" rx="1"/>
    <rect x="40" y="44" width="6" height="5" rx="1"/>
  </g>
  <circle cx="54" cy="14" r="3" fill="#c41e3a"/>
</svg>
